<svg width="50" height="50" viewBox="0 0 50 50" fill="none" xmlns="http://www.w3.org/2000/svg">
<path d="M27.0001 4C25.5001 0.999997 21.5001 3 23.0001 6L27.0001 4Z" fill="white"/>
<path d="M27.0001 4L47.0001 44L43.0001 46L23.0001 6L27.0001 4Z" fill="white"/>
<path d="M43.0001 46C44.5001 49 48.5001 47 47.0001 44L43.0001 46Z" fill="white"/>
<path d="M29.0001 32.5C32.3542 32.4991 32.3542 27.9991 29.0001 28L29.0001 32.5Z" fill="white"/>
<path d="M3.00012 44C1.50006 47 5.50009 49 7.00012 46L3.00012 44Z" fill="white"/>
<path d="M29.0001 28C11.0001 28 11.0001 28 3.00012 44L7.00012 46C13.7501 32.5 13.7501 32.5 29.0001 32.5L29.0001 28Z" fill="white"/>
<path d="M22.4901 14.245C22.4901 15.4849 21.485 16.49 20.2451 16.49C19.0052 16.49 18.0001 15.4849 18.0001 14.245C18.0001 13.0051 19.0052 12 20.2451 12C21.485 12 22.4901 13.0051 22.4901 14.245Z" fill="white"/>
<path d="M18.4901 22.245C18.4901 23.4849 17.485 24.49 16.2451 24.49C15.0052 24.49 14.0001 23.4849 14.0001 22.245C14.0001 21.0051 15.0052 20 16.2451 20C17.485 20 18.4901 21.0051 18.4901 22.245Z" fill="white"/>
</svg>
